<?xml version="1.0" encoding="utf-8"?>
<!-- Generator: Adobe Illustrator 24.0.0, SVG Export Plug-In . SVG Version: 6.00 Build 0)  -->
<svg version="1.1" xmlns="http://www.w3.org/2000/svg" xmlns:xlink="http://www.w3.org/1999/xlink" x="0px" y="0px"
	 viewBox="0 0 64 64" enable-background="new 0 0 64 64" xml:space="preserve">
<g id="Captions">
</g>
<g id="Icons">
	<g>
		<g>
			<path fill="#64C8F0" d="M52,42v-3c0-0.552-0.448-1-1-1H13c-0.552,0-1,0.448-1,1v6c0,0.552,0.448,1,1,1h31.019
				C45.846,43.577,48.738,42,52,42z"/>
		</g>
		<g>
			<path fill="#64C8F0" d="M42,52c0-1.422,0.303-2.774,0.841-4H13c-0.552,0-1,0.448-1,1v6c0,0.552,0.448,1,1,1h29.841
				C42.303,54.774,42,53.422,42,52z"/>
		</g>
		<g>
			<path fill="#288CB4" d="M34,52L34,52c0.552,0,1-0.448,1-1l0,0c0-0.552-0.448-1-1-1l0,0c-0.552,0-1,0.448-1,1l0,0
				C33,51.552,33.448,52,34,52z"/>
		</g>
		<g>
			<path fill="#288CB4" d="M38,52L38,52c0.552,0,1-0.448,1-1l0,0c0-0.552-0.448-1-1-1l0,0c-0.552,0-1,0.448-1,1l0,0
				C37,51.552,37.448,52,38,52z"/>
		</g>
		<g>
			<path fill="#288CB4" d="M30,52L30,52c0.552,0,1-0.448,1-1l0,0c0-0.552-0.448-1-1-1h0c-0.552,0-1,0.448-1,1l0,0
				C29,51.552,29.448,52,30,52z"/>
		</g>
		<g>
			<path fill="#FA6450" d="M26,52L26,52c0.552,0,1-0.448,1-1l0,0c0-0.552-0.448-1-1-1h0c-0.552,0-1,0.448-1,1l0,0
				C25,51.552,25.448,52,26,52z"/>
		</g>
		<g>
			<rect x="14" y="36" fill="#288CB4" width="36" height="2"/>
		</g>
		<g>
			<path fill="#288CB4" d="M34,42L34,42c0.552,0,1-0.448,1-1l0,0c0-0.552-0.448-1-1-1l0,0c-0.552,0-1,0.448-1,1l0,0
				C33,41.552,33.448,42,34,42z"/>
		</g>
		<g>
			<path fill="#288CB4" d="M38,42L38,42c0.552,0,1-0.448,1-1l0,0c0-0.552-0.448-1-1-1l0,0c-0.552,0-1,0.448-1,1l0,0
				C37,41.552,37.448,42,38,42z"/>
		</g>
		<g>
			<path fill="#288CB4" d="M30,42L30,42c0.552,0,1-0.448,1-1l0,0c0-0.552-0.448-1-1-1h0c-0.552,0-1,0.448-1,1l0,0
				C29,41.552,29.448,42,30,42z"/>
		</g>
		<g>
			<path fill="#FA6450" d="M26,42L26,42c0.552,0,1-0.448,1-1l0,0c0-0.552-0.448-1-1-1h0c-0.552,0-1,0.448-1,1l0,0
				C25,41.552,25.448,42,26,42z"/>
		</g>
		<g>
			<rect x="14" y="26" fill="#288CB4" width="36" height="2"/>
		</g>
		<g>
			<path fill="#64C8F0" d="M51,36H13c-0.552,0-1-0.448-1-1v-6c0-0.552,0.448-1,1-1h38c0.552,0,1,0.448,1,1v6
				C52,35.552,51.552,36,51,36z"/>
		</g>
		<g>
			<path fill="#288CB4" d="M34,32L34,32c0.552,0,1-0.448,1-1v0c0-0.552-0.448-1-1-1l0,0c-0.552,0-1,0.448-1,1v0
				C33,31.552,33.448,32,34,32z"/>
		</g>
		<g>
			<path fill="#288CB4" d="M38,32L38,32c0.552,0,1-0.448,1-1v0c0-0.552-0.448-1-1-1l0,0c-0.552,0-1,0.448-1,1v0
				C37,31.552,37.448,32,38,32z"/>
		</g>
		<g>
			<path fill="#288CB4" d="M30,32L30,32c0.552,0,1-0.448,1-1v0c0-0.552-0.448-1-1-1h0c-0.552,0-1,0.448-1,1v0
				C29,31.552,29.448,32,30,32z"/>
		</g>
		<g>
			<path fill="#FA6450" d="M26,32L26,32c0.552,0,1-0.448,1-1v0c0-0.552-0.448-1-1-1h0c-0.552,0-1,0.448-1,1v0
				C25,31.552,25.448,32,26,32z"/>
		</g>
		<g>
			<rect x="14" y="16" fill="#288CB4" width="36" height="2"/>
		</g>
		<g>
			<path fill="#64C8F0" d="M51,26H13c-0.552,0-1-0.448-1-1v-6c0-0.552,0.448-1,1-1h38c0.552,0,1,0.448,1,1v6
				C52,25.552,51.552,26,51,26z"/>
		</g>
		<g>
			<path fill="#288CB4" d="M34,22L34,22c0.552,0,1-0.448,1-1v0c0-0.552-0.448-1-1-1l0,0c-0.552,0-1,0.448-1,1v0
				C33,21.552,33.448,22,34,22z"/>
		</g>
		<g>
			<path fill="#288CB4" d="M38,22L38,22c0.552,0,1-0.448,1-1v0c0-0.552-0.448-1-1-1l0,0c-0.552,0-1,0.448-1,1v0
				C37,21.552,37.448,22,38,22z"/>
		</g>
		<g>
			<path fill="#288CB4" d="M30,22L30,22c0.552,0,1-0.448,1-1v0c0-0.552-0.448-1-1-1h0c-0.552,0-1,0.448-1,1v0
				C29,21.552,29.448,22,30,22z"/>
		</g>
		<g>
			<path fill="#FA6450" d="M26,22L26,22c0.552,0,1-0.448,1-1v0c0-0.552-0.448-1-1-1h0c-0.552,0-1,0.448-1,1v0
				C25,21.552,25.448,22,26,22z"/>
		</g>
		<g>
			<path fill="#64C8F0" d="M51,16H13c-0.552,0-1-0.448-1-1V9c0-0.552,0.448-1,1-1h38c0.552,0,1,0.448,1,1v6
				C52,15.552,51.552,16,51,16z"/>
		</g>
		<g>
			<path fill="#46AAD2" d="M16,15V9c0-0.552,0.448-1,1-1h-4c-0.552,0-1,0.448-1,1v6c0,0.552,0.448,1,1,1h4
				C16.448,16,16,15.552,16,15z"/>
		</g>
		<g>
			<path fill="#46AAD2" d="M16,25v-6c0-0.552,0.448-1,1-1h-4c-0.552,0-1,0.448-1,1v6c0,0.552,0.448,1,1,1h4
				C16.448,26,16,25.552,16,25z"/>
		</g>
		<g>
			<path fill="#46AAD2" d="M16,35v-6c0-0.552,0.448-1,1-1h-4c-0.552,0-1,0.448-1,1v6c0,0.552,0.448,1,1,1h4
				C16.448,36,16,35.552,16,35z"/>
		</g>
		<g>
			<path fill="#46AAD2" d="M16,45v-6c0-0.552,0.448-1,1-1h-4c-0.552,0-1,0.448-1,1v6c0,0.552,0.448,1,1,1h4
				C16.448,46,16,45.552,16,45z"/>
		</g>
		<g>
			<path fill="#46AAD2" d="M16,55v-6c0-0.552,0.448-1,1-1h-4c-0.552,0-1,0.448-1,1v6c0,0.552,0.448,1,1,1h4
				C16.448,56,16,55.552,16,55z"/>
		</g>
		<g>
			<path fill="#288CB4" d="M34,12L34,12c0.552,0,1-0.448,1-1v0c0-0.552-0.448-1-1-1l0,0c-0.552,0-1,0.448-1,1v0
				C33,11.552,33.448,12,34,12z"/>
		</g>
		<g>
			<path fill="#288CB4" d="M38,12L38,12c0.552,0,1-0.448,1-1v0c0-0.552-0.448-1-1-1l0,0c-0.552,0-1,0.448-1,1v0
				C37,11.552,37.448,12,38,12z"/>
		</g>
		<g>
			<path fill="#288CB4" d="M30,12L30,12c0.552,0,1-0.448,1-1v0c0-0.552-0.448-1-1-1h0c-0.552,0-1,0.448-1,1v0
				C29,11.552,29.448,12,30,12z"/>
		</g>
		<g>
			<path fill="#FA6450" d="M26,12L26,12c0.552,0,1-0.448,1-1v0c0-0.552-0.448-1-1-1h0c-0.552,0-1,0.448-1,1v0
				C25,11.552,25.448,12,26,12z"/>
		</g>
		<g>
			<path fill="#288CB4" d="M14,46v2h28.841c0.314-0.716,0.713-1.383,1.178-2H14z"/>
		</g>
		<g>
			<circle fill="#3CC8B4" cx="52" cy="52" r="8"/>
		</g>
		<g>
			<path fill="#1EAA96" d="M46,52c0-4.079,3.055-7.438,7-7.931C52.672,44.028,52.339,44,52,44c-4.418,0-8,3.582-8,8s3.582,8,8,8
				c0.339,0,0.672-0.028,1-0.069C49.055,59.438,46,56.079,46,52z"/>
		</g>
		<g>
			<polygon fill="#F0F0F0" points="57,50 51,56 47,52 49,50 51,52 55,48 			"/>
		</g>
	</g>
</g>
</svg>
